<svg xmlns="http://www.w3.org/2000/svg" width="141" height="45" fill="none" viewBox="0 0 141 45">
  <path fill="#fff" d="M4.4 28.8C5.5 30.1 7.7 31 10 31c2.1 0 3.1-.6 3.1-1.7 0-.4-.2-.7-.7-1-.4-.2-1.2-.4-2.4-.7-1.2-.3-2.2-.6-2.8-.8-3.1-1.1-4.7-3-4.7-5.7 0-2.1.8-3.7 2.3-4.9 1.6-1.2 3.4-1.8 5.7-1.8 2.9 0 5.2.9 7.1 2.7l-2.9 4c-1.1-1-2.6-1.5-4.3-1.5-1.3 0-2 .5-2 1.3 0 .5.2.8.9 1.1.8.3 2.5.6 4.8 1.4 3.2 1.2 4.9 3.2 4.9 5.9 0 4.2-3 6.9-9.1 6.9-4 0-7-1.2-9-3.7l3.5-3.7zM20.9 15.1H27v13.4c0 1.5.4 2.2 1.4 2.2.4 0 .6 0 .7-.1v5.2c-.5.2-1.5.3-2.8.3-3.6 0-5.4-1.9-5.4-5.8V15.1zM30.8 35.7V15.1h6.1v2.5c.8-1.8 2.9-3 5.4-3 2.8 0 4.7 1.1 5.6 3.3 1.1-2.2 3.4-3.3 6.8-3.3 4.6 0 7.2 3.2 7.2 8.5v5.2c0 1.6.3 2.2 1.3 2.2H63.8v5.1c-.6.2-1.4.3-2.6.3-3.6 0-5.4-2-5.4-5.9v-6.1c0-2.4-1.1-3.9-3-3.9-2 0-3.4 1.7-3.4 4.1v11.6h-6.1V23.9c0-2.4-1.1-3.9-3.1-3.9s-3.4 1.7-3.4 4.1v11.6h-6zM65.7 43.5V15.1h6.1v2.7c.6-1.8 3-3.1 6.1-3.1 2.9 0 5.4 1 7.3 3.1 2 2 2.9 4.6 2.9 7.6s-1 5.5-2.9 7.6c-1.9 2-4.4 3.1-7.3 3.1-3.1 0-5.5-1.3-6.1-3.1v10.6l-6.1-.1zM80.5 29c1-1 1.5-2.2 1.5-3.7 0-1.4-.5-2.7-1.5-3.6-1-1-2.2-1.5-3.7-1.5s-2.8.5-3.8 1.5-1.6 2.2-1.6 3.6.5 2.7 1.6 3.7 2.3 1.5 3.8 1.5 2.7-.5 3.7-1.5zM90.1 7.2h6.1V28c0 1.8.7 2.7 2.4 2.7.6 0 1.1 0 1.5-.2v5.4c-.7.2-1.7.3-2.9.3-4.7 0-7-2.4-7-7.2l-.1-21.8zM100.4 25.3c0-3.2 1.1-5.8 3.1-7.8 2.1-2 4.8-3 8-3 3.1 0 5.7 1 7.6 3 2 2 2.9 4.5 2.9 7.4 0 .7 0 1.3-.1 2h-15.6c.1 2.5 2.2 4 5.5 4 1.9 0 3.6-.7 5-2l3.6 3.4c-2.4 2.5-5.4 3.8-8.9 3.8-3.4 0-6.1-1-8.2-2.9-2.1-2-3.1-4.5-3.1-7.8v-.1h.2zM116 23c0-1.9-2-3.4-4.5-3.4-2.7 0-4.8 1.5-5 3.4h9.5zM125.9 28.8c1.1 1.3 3.3 2.2 5.6 2.2 2.1 0 3.1-.6 3.1-1.7 0-.4-.2-.7-.7-1-.4-.2-1.3-.5-2.5-.8-1.2-.3-2.2-.6-2.8-.8-3.1-1.1-4.7-3-4.7-5.7 0-2.1.8-3.7 2.3-4.9 1.6-1.2 3.4-1.8 5.7-1.8 2.9 0 5.2.9 7.1 2.7l-2.9 4c-1.1-1-2.6-1.5-4.3-1.5-1.3 0-2 .5-2 1.3 0 .5.2.8.9 1.1.8.3 2.5.6 4.8 1.4 3.4 1.1 5.1 3.1 5.1 5.8 0 4.2-3 6.9-9.1 6.9-4 0-7-1.2-9-3.7l3.4-3.5z"/>
  <g>
    <path fill="#fff" d="M7.5 10.2l.7 1.3c-.6.5-1.6 1-2.9 1-2.4 0-3.8-1.5-3.8-4.3 0-3.3 2.1-4.4 3.8-4.4 1.1 0 2.3.4 3 1.6l-1.2 1c-.4-.5-1-1-1.8-1-1.1 0-1.9.9-1.9 2.8 0 1.7.6 2.8 2.1 2.8.7-.1 1.3-.3 2-.8zM12.5 3.7c1.2 0 3.6.4 3.6 4.2 0 3.2-1.7 4.6-3.9 4.6s-3.6-1.4-3.6-4.4c.1-3.4 2.2-4.4 3.9-4.4zm1.6 4.4c0-1.8-.4-3-1.7-3-1.2 0-1.7 1.1-1.7 2.7 0 1.5.2 3.2 1.7 3.2 1.2 0 1.7-1.1 1.7-2.9zM17.7 12.2V5.4L17.5 4h1.6l.2 1c.6-.8 1.4-1.3 2.5-1.3 1.6 0 2.6.9 2.6 2.9v5.7h-2V7c0-1-.2-1.8-1.2-1.8s-1.7.8-1.7 1.7v5.4h-1.8v-.1zM28.5.8V4h2.2v1.5h-2.2v4.2c0 1 .4 1.3 1.1 1.3.4 0 .9-.2 1.1-.3l.5 1.3c-.5.3-1.3.6-2.1.6-2.6 0-2.6-1.6-2.6-2.7V.8h2zM38.8 10.7l.1 1.6h-1.7l-.1-.9H37c-.5.7-1.4 1.1-2.3 1.1-2.3 0-3.2-1.6-3.2-4 0-2.9 1.4-4.7 4.3-4.7.5 0 1.7.1 2.9.6v6.3h.1zm-1.9-5.3c-.2-.1-.7-.2-1.2-.2-1.6 0-2.1 1.5-2.1 3.2 0 1.4.3 2.7 1.7 2.7 1 0 1.6-.7 1.6-1.4V5.4z"/>
  </g>
</svg>
